<?xml version="1.0" encoding="UTF-8"?>
<svg width="48" height="48" viewBox="0 0 48 48" xmlns="http://www.w3.org/2000/svg" role="img" aria-labelledby="title desc">
  <title id="title">Companion AI icon</title>
  <desc id="desc">Companion AI icon with friendly companion shapes and blue gradient</desc>

  <defs>
    <linearGradient id="g-blue-small" x1="0%" x2="100%" y1="0%" y2="100%">
      <stop offset="0%" stop-color="#2fd2ff"/>
      <stop offset="60%" stop-color="#2693ff"/>
      <stop offset="100%" stop-color="#0058ff"/>
    </linearGradient>
  </defs>

  <!-- Main companion shape -->
  <path d="M32 8 C38 8, 42 12, 42 18 C42 24, 38 28, 32 30 C30 30.2, 28 31, 26 31 C22 31, 18 27, 18 23 C18 19, 22 15, 26 15 C28 15, 30 16, 32 14 C32 12, 32 8, 32 8 Z"
        fill="none" stroke="url(#g-blue-small)" stroke-width="2.5" stroke-linecap="round" stroke-linejoin="round" />
  
  <!-- Inner face -->
  <g transform="translate(18,16)">
    <circle cx="4" cy="3" r="1.5" fill="url(#g-blue-small)"/>
    <circle cx="10" cy="3" r="1.5" fill="url(#g-blue-small)"/>
    <path d="M4 7 C6 9, 8 9, 10 7" stroke="url(#g-blue-small)" stroke-width="1.5" stroke-linecap="round" fill="none"/>
  </g>
  
  <!-- Small companion -->
  <g transform="translate(28,24) rotate(8)">
    <path d="M4 0 C6 0, 8 2, 8 4 C8 6, 6 8, 4 8 C2 8, 0 6, 0 4 C0 2, 2 0, 4 0 Z"
          fill="none" stroke="url(#g-blue-small)" stroke-width="1.5" stroke-linejoin="round" stroke-linecap="round" />
    <circle cx="2.5" cy="2.5" r="0.8" fill="url(#g-blue-small)"/>
    <circle cx="5.5" cy="2.5" r="0.8" fill="url(#g-blue-small)"/>
    <path d="M2.5 4.5 C3.5 5.5, 4.5 5.5, 5.5 4.5" stroke="url(#g-blue-small)" stroke-width="0.8" stroke-linecap="round" fill="none"/>
  </g>
  
  <!-- Connection lines -->
  <path d="M30 18 C32 17, 34 17, 35 19" stroke="url(#g-blue-small)" stroke-width="1" stroke-linecap="round" fill="none" opacity="0.7"/>
</svg>
